<?xml version="1.0"?>
<svg xmlns="http://www.w3.org/2000/svg" xmlns:xlink="http://www.w3.org/1999/xlink" xmlns:svgjs="http://svgjs.com/svgjs" version="1.1" width="512" height="512" x="0" y="0" viewBox="0 0 512 512" style="enable-background:new 0 0 512 512" xml:space="preserve" class=""><g><g xmlns="http://www.w3.org/2000/svg"><g><path d="m477.379 236.654-12.486-9.908 3.21-4.555 13.625-19.333c8.558-12.145 6.145-28.892-5.493-38.125-11.636-9.233-28.495-7.777-38.376 3.317l-15.725 17.657c-.001.002-.003.003-.005.005l-18.823 21.135c-.001.002-.003.003-.004.005l-63.164 70.924c-14.732 16.542-28.05 34.516-39.583 53.424-2.156 3.536-1.038 8.151 2.498 10.308 1.22.744 2.566 1.098 3.898 1.098 2.528 0 4.997-1.279 6.41-3.596 11.065-18.142 23.843-35.388 37.978-51.259l58.456-65.637 25.661 20.361-50.632 71.845c-12.241 17.371-26.131 33.734-41.284 48.636l-36.795 36.185c-.303.297-.785.324-1.117.06l-18.945-15.033c-.333-.264-.417-.737-.195-1.1l8.307-13.618c2.156-3.537 1.038-8.152-2.498-10.309-3.534-2.156-8.151-1.04-10.309 2.497l-8.306 13.618c-2.015 3.303-2.671 7.091-2.112 10.683-6.762 6.439-13.656 9.574-21.435 9.799-4.645.134-8.518 3.719-9.011 8.339l-5.222 49.009c-.819 7.672 6.642 13.848 14.153 11.231l46.541-16.227c4.388-1.53 6.998-6.118 6.072-10.67-1.551-7.627-.064-15.053 4.671-23.102 3.626-.272 7.164-1.771 9.923-4.483l36.796-36.186c15.793-15.532 30.271-32.586 43.028-50.69l54.714-77.637 4.439-6.298 11.818 9.377c1.871 1.485 2.186 4.216.701 6.087l-35.126 44.268c-2.575 3.245-2.031 7.962 1.213 10.537 1.379 1.094 3.023 1.625 4.657 1.625 2.21 0 4.399-.973 5.88-2.839l35.127-44.269c6.624-8.347 5.22-20.532-3.13-27.156zm-212.606 206.648 12.452-15.693c2.575-3.245 2.031-7.962-1.213-10.537-3.245-2.575-7.963-2.032-10.537 1.213l-12.452 15.693 2.522-23.661c8.944-1.256 17.126-5.235 24.775-12.049l13.023 10.334c-4.896 8.997-6.911 17.869-6.101 26.865zm184.287-265.276c4.597-5.16 12.439-5.838 17.852-1.543s6.536 12.085 2.555 17.734l-9.051 12.843-21.806-17.3zm-20.442 22.954 23.142 18.362-7.649 10.853-24.323-19.3z" fill="#000000" data-original="#000000" style=""/><path d="m66.489 452.255c1.45 3.879 5.769 5.851 9.648 4.4.393-.146 7.19-2.699 15.952-6.819 4.895 3.782 10.852 6.063 17.482 6.525 18.783 1.307 27.768-2.408 33.714-4.866 4.995-2.065 5.518-2.281 11.844 2.182 8.058 5.684 19.44 7.546 28.999 7.546 4.874 0 9.274-.484 12.514-1.193 4.046-.885 6.609-4.883 5.724-8.93-.885-4.046-4.881-6.609-8.93-5.724-6.402 1.4-21.673 1.677-29.66-3.956-12.164-8.581-18.279-7.071-26.222-3.787-5.201 2.15-11.675 4.828-26.941 3.764-.698-.048-1.367-.13-2.009-.241 16.493-9.809 24.893-19.243 25.629-28.743.431-5.562-1.574-13.607-13.571-20.351-15.827-8.896-26.345-3.595-31.206.357-10.039 8.162-13.865 25.016-9.098 40.074.584 1.847 1.282 3.604 2.084 5.267-6.638 2.995-11.477 4.814-11.555 4.843-3.879 1.453-5.848 5.773-4.398 9.652zm32.43-48.196c1.495-1.215 3.275-1.823 5.329-1.823 2.593 0 5.623.968 9.065 2.903 1.855 1.042 6.15 3.726 5.965 6.115-.265 3.431-6.482 10.658-23.131 19.734-.082.044-.165.09-.247.134-.539-1.128-.942-2.208-1.242-3.156-2.838-8.965-.927-19.69 4.261-23.907z" fill="#000000" data-original="#000000" style=""/><path d="m280.114 150.724h-202.745c-4.142 0-7.5 3.358-7.5 7.5s3.358 7.5 7.5 7.5h202.745c4.143 0 7.5-3.358 7.5-7.5s-3.357-7.5-7.5-7.5z" fill="#000000" data-original="#000000" style=""/><path d="m280.114 194.721h-202.745c-4.142 0-7.5 3.358-7.5 7.5s3.358 7.5 7.5 7.5h202.745c4.143 0 7.5-3.358 7.5-7.5s-3.357-7.5-7.5-7.5z" fill="#000000" data-original="#000000" style=""/><path d="m287.614 246.217c0-4.142-3.357-7.5-7.5-7.5h-202.745c-4.142 0-7.5 3.358-7.5 7.5s3.358 7.5 7.5 7.5h202.745c4.143 0 7.5-3.358 7.5-7.5z" fill="#000000" data-original="#000000" style=""/><path d="m77.369 297.714h86.153c4.142 0 7.5-3.358 7.5-7.5s-3.358-7.5-7.5-7.5h-86.153c-4.142 0-7.5 3.358-7.5 7.5s3.358 7.5 7.5 7.5z" fill="#000000" data-original="#000000" style=""/><path d="m413.455 321.25c-4.143 0-7.5 3.358-7.5 7.5v142.352c0 14.28-11.617 25.898-25.897 25.898h-314.003c-14.28 0-25.898-11.618-25.898-25.898v-430.204c0-14.28 11.618-25.898 25.898-25.898h244.414c1.01 0 2.004.101 2.98.265v51.343c0 22.551 18.347 40.897 40.897 40.897h51.343c.164.977.265 1.97.265 2.98v57.764c0 4.142 3.357 7.5 7.5 7.5s7.5-3.358 7.5-7.5v-57.764c0-8.762-3.412-16.999-9.607-23.194l-77.684-77.684c-6.195-6.195-14.433-9.607-23.194-9.607h-244.414c-22.551 0-40.898 18.347-40.898 40.898v430.204c0 22.551 18.347 40.898 40.898 40.898h314.002c22.551 0 40.897-18.347 40.897-40.898v-142.352c.001-4.142-3.356-7.5-7.499-7.5zm-18.107-228.744h-41.001c-14.28 0-25.897-11.618-25.897-25.897v-41.002z" fill="#000000" data-original="#000000" style=""/><path d="m82.641 98.004h78.456c7.043 0 12.772-5.729 12.772-12.772v-28.567c0-7.043-5.729-12.772-12.772-12.772h-78.456c-7.042 0-12.772 5.729-12.772 12.772v28.567c0 7.042 5.73 12.772 12.772 12.772zm2.228-39.111h74v24.111h-74z" fill="#000000" data-original="#000000" style=""/></g></g></g></svg>
